#!OML:ASF X:\für Bonn\!DataBase\2005_08_10_Bjorn_Final\c3d\bjorn.ASF
:FULLY-SPECIFIED
:DEGREES
666
root 0.589889 1.59534 18.141 -442.368 -175.38 -713.991
lowerback -9.92382 0.062508 -4.09154
upperback 0.544571 0.638643 -3.04436
thorax 6.14119 0.182937 -0.800004
lowerneck -12.1854 -5.81439 -3.14809
upperneck 1.05946 -7.90344 5.89311
head 2.89166 -3.87043 1.97144
rclavicle 1.27222e-014 1.08338e-014
rhumerus -242.094 -226.766 77.2939
rradius 114.802
rwrist -21.1416
rhand -22.3065 12.6632
rfingers 7.12502
rthumb 4.11282 -17.2769
lclavicle 1.27222e-014 1.08338e-014
lhumerus -61.8141 -63.3387 103.587
lradius 110.488
lwrist 29.3061
lhand -16.8698 -374.863
lfingers 7.12502
lthumb 9.36102 14.9094
rfemur -17.2994 -23.8472 11.3837
rtibia 29.3498
rfoot 3.48959 -3.99021
rtoes 13.0205
lfemur 163.295 178.515 165.836
ltibia 24.7397
lfoot 1.62593 5.34562
ltoes 15.722
667
root 0.589567 1.59486 18.1413 -442.378 -175.4 -713.996
lowerback -9.91997 0.0496796 -4.09519
upperback 0.561191 0.623085 -3.02857
thorax 6.15665 0.17521 -0.783791
lowerneck -12.2809 -5.79024 -3.12678
upperneck 1.14111 -7.87168 5.86628
head 2.93359 -3.85203 1.95806
rclavicle -1.59028e-015 3.11098e-014
rhumerus -242.273 -226.978 76.8563
rradius 114.579
rwrist -21.1375
rhand -22.9768 12.7502
rfingers 7.12502
rthumb 3.4655 -17.2014
lclavicle -1.59028e-015 3.11098e-014
lhumerus -62.1767 -63.4092 104.036
lradius 110.479
lwrist 29.5233
lhand -16.6271 -374.759
lfingers 7.12502
lthumb 9.59512 15.0023
rfemur -17.27 -23.8403 11.3856
rtibia 29.3431
rfoot 3.37393 -4.10961
rtoes 13.0967
lfemur 163.303 178.478 165.858
ltibia 24.7436
lfoot 1.62904 5.37024
ltoes 15.698
668
root 0.58873 1.59411 18.1408 -442.396 -175.415 -713.975
lowerback -9.89971 0.0301368 -4.10169
upperback 0.568445 0.597382 -3.00769
thorax 6.15297 0.162788 -0.761995
lowerneck -12.275 -5.76921 -3.1188
upperneck 1.13099 -7.84257 5.85242
head 2.92639 -3.83785 1.95442
rclavicle 1.51076e-014 1.2921e-014
rhumerus -242.46 -227.189 76.4133
rradius 114.355
rwrist -21.1267
rhand -23.7091 12.812
rfingers 7.12502
rthumb 2.75833 -17.1499
lclavicle 1.51076e-014 1.2921e-014
lhumerus -62.5847 -63.4671 104.547
lradius 110.459
lwrist 29.7267
lhand -16.3484 -374.571
lfingers 7.12502
lthumb 9.86404 15.1783
rfemur -17.2346 -23.8497 11.3814
rtibia 29.3396
rfoot 3.2434 -4.262
rtoes 13.0559
lfemur 163.324 178.553 165.885
ltibia 24.7405
lfoot 1.56533 5.45923
ltoes 15.7884
669
root 0.588549 1.59376 18.1403 -442.398 -175.418 -713.976
lowerback -9.89374 0.0219865 -4.11632
upperback 0.567553 0.587811 -3.00164
thorax 6.14861 0.157734 -0.748829
lowerneck -12.2984 -5.75318 -3.12014
upperneck 1.18266 -7.82151 5.85896
head 2.94812 -3.82564 1.95744
rclavicle 2.22639e-014 2.68359e-015
rhumerus -242.687 -227.372 75.9417
rradius 114.127
rwrist -21.1395
rhand -24.4795 12.9101
rfingers 7.12502
rthumb 2.01424 -17.0601
lclavicle 2.22639e-014 2.68359e-015
lhumerus -63.0298 -63.5599 105.087
lradius 110.431
lwrist 29.9538
lhand -16.0835 -374.454
lfingers 7.12502
lthumb 10.1196 15.283
rfemur -17.225 -23.8952 11.3761
rtibia 29.3374
rfoot 3.17211 -4.35354
rtoes 12.8871
lfemur 163.333 178.598 165.894
ltibia 24.738
lfoot 1.51741 5.54164
ltoes 16.0541
670
root 0.588356 1.59281 18.14 -442.417 -175.435 -713.984
lowerback -9.88396 0.0123354 -4.12071
upperback 0.588282 0.576433 -2.98981
thorax 6.16507 0.151961 -0.735772
lowerneck -12.3657 -5.73006 -3.07943
upperneck 1.23598 -7.79423 5.8286
head 2.97405 -3.81063 1.94005
rclavicle 2.3059e-014 -6.55989e-015
rhumerus -242.874 -227.583 75.504
rradius 113.925
rwrist -21.1578
rhand -25.2832 12.9792
rfingers 7.12502
rthumb 1.23805 -16.9969
lclavicle 2.3059e-014 -6.55989e-015
lhumerus -63.4055 -63.6549 105.561
lradius 110.413
lwrist 30.2277
lhand -15.7934 -374.332
lfingers 7.12502
lthumb 10.3995 15.3911
rfemur -17.1905 -23.8119 11.3723
rtibia 29.3363
rfoot 3.00588 -4.52048
rtoes 12.8147
lfemur 163.354 178.514 165.908
ltibia 24.7376
lfoot 1.55047 5.53153
ltoes 15.9773
671
root 0.587974 1.59222 18.1395 -442.425 -175.435 -713.974
lowerback -9.86798 -0.00893467 -4.14574
upperback 0.58565 0.549953 -2.96834
thorax 6.15325 0.13856 -0.703001
lowerneck -12.387 -5.71317 -3.10066
upperneck 1.2732 -7.76616 5.81793
head 2.99015 -3.7954 1.94161
rclavicle -1.82882e-014 1.89839e-014
rhumerus -243.137 -227.789 75.0256
rradius 113.719
rwrist -21.1697
rhand -26.0949 13.0267
rfingers 7.12502
rthumb 0.454069 -16.9526
lclavicle -1.82882e-014 1.89839e-014
lhumerus -63.9012 -63.7059 106.154
lradius 110.39
lwrist 30.4874
lhand -15.5501 -374.23
lfingers 7.12502
lthumb 10.6342 15.481
rfemur -17.1696 -23.814 11.3558
rtibia 29.3367
rfoot 2.8929 -4.66317
rtoes 12.895
lfemur 163.367 178.57 165.916
ltibia 24.7354
lfoot 1.48899 5.60741
ltoes 16.2051
672
root 0.587926 1.59207 18.1388 -442.444 -175.452 -713.972
lowerback -9.85471 -0.019811 -4.1447
upperback 0.596756 0.535584 -2.96181
thorax 6.15771 0.131688 -0.698902
lowerneck -12.4103 -5.69284 -3.07724
upperneck 1.29517 -7.74215 5.81227
head 2.99948 -3.78273 1.93662
rclavicle 8.74653e-015 -3.16068e-014
rhumerus -243.345 -227.967 74.5681
rradius 113.518
rwrist -21.1861
rhand -26.883 13.0938
rfingers 7.12502
rthumb -0.307105 -16.8857
lclavicle 8.74653e-015 -3.16068e-014
lhumerus -64.3949 -63.8122 106.736
lradius 110.36
lwrist 30.6989
lhand -15.347 -374.148
lfingers 7.12502
lthumb 10.83 15.5524
rfemur -17.1375 -23.8386 11.3585
rtibia 29.334
rfoot 2.80469 -4.76573
rtoes 12.6248
lfemur 163.389 178.528 165.937
ltibia 24.7343
lfoot 1.49512 5.62116
ltoes 16.2949
673
root 0.588171 1.59185 18.1381 -442.451 -175.44 -713.985
lowerback -9.84751 -0.0247456 -4.17893
upperback 0.605674 0.532915 -2.95894
thorax 6.16285 0.129095 -0.677173
lowerneck -12.4361 -5.67337 -3.04953
upperneck 1.30084 -7.71795 5.78931
head 3.00243 -3.77062 1.92516
rclavicle 1.74931e-014 2.88238e-015
rhumerus -243.565 -228.159 74.1012
rradius 113.314
rwrist -21.1897
rhand -27.7266 13.0654
rfingers 7.12502
rthumb -1.12182 -16.9114
lclavicle 1.74931e-014 2.88238e-015
lhumerus -64.9038 -63.9098 107.349
lradius 110.309
lwrist 30.9171
lhand -15.1438 -374.136
lfingers 7.12502
lthumb 11.026 15.5542
rfemur -17.1176 -23.8401 11.3278
rtibia 29.332
rfoot 2.70662 -4.86845
rtoes 12.7193
lfemur 163.413 178.569 165.932
ltibia 24.7342
lfoot 1.42588 5.71477
ltoes 16.4872
674
root 0.587785 1.59082 18.1381 -442.452 -175.455 -713.992
lowerback -9.85302 -0.0318252 -4.18276
upperback 0.618715 0.525152 -2.94522
thorax 6.17978 0.125025 -0.661886
lowerneck -12.4781 -5.66585 -3.05883
upperneck 1.34358 -7.70736 5.7997
head 3.02574 -3.76361 1.92978
rclavicle -4.37326e-014 6.65929e-014
rhumerus -243.803 -228.345 73.6397
rradius 113.128
rwrist -21.1705
rhand -28.6114 13.0559
rfingers 7.12502
rthumb -1.97642 -16.9147
lclavicle -4.37326e-014 6.65929e-014
lhumerus -65.3889 -64.0243 107.929
lradius 110.263
lwrist 31.1559
lhand -14.8885 -374.069
lfingers 7.12502
lthumb 11.2723 15.6081
rfemur -17.1084 -23.8457 11.3322
rtibia 29.3264
rfoot 2.60438 -4.99009
rtoes 12.6882
lfemur 163.418 178.582 165.948
ltibia 24.734
lfoot 1.39889 5.7751
ltoes 16.4984
675
root 0.587397 1.59073 18.1382 -442.461 -175.457 -713.994
lowerback -9.84564 -0.0459076 -4.20089
upperback 0.627633 0.508657 -2.92756
thorax 6.18507 0.116415 -0.635645
lowerneck -12.5165 -5.64621 -3.07059
upperneck 1.37119 -7.67702 5.78839
head 3.04112 -3.74737 1.9293
rclavicle 7.95139e-016 3.8763e-015
rhumerus -244.056 -228.56 73.1815
rradius 112.945
rwrist -21.169
rhand -29.4441 13.1155
rfingers 7.12502
rthumb -2.78061 -16.8461
lclavicle 7.95139e-016 3.8763e-015
lhumerus -65.9731 -64.1122 108.624
lradius 110.206
lwrist 31.304
lhand -14.6793 -374.052
lfingers 7.12502
lthumb 11.474 15.6142
rfemur -17.0958 -23.9014 11.3232
rtibia 29.3242
rfoot 2.55908 -5.06547
rtoes 12.4667
lfemur 163.433 178.564 165.953
ltibia 24.7316
lfoot 1.36491 5.83543
ltoes 16.631
